<?xml version="1.0" encoding="UTF-8"?>
<svg id="directed-loop" xmlns="http://www.w3.org/2000/svg" width="256" height="256" viewBox="0 0 256 256">
  <path id="arrow-head" d="m159.15,175.73l-31.15,49.27c16.32,0,32.23-3.89,46.88-12.04l-15.73-37.22Z" fill="#fff" stroke-width="0"/>
  <path id="arrow-shaft" d="m128,31c-53.49,0-97,43.51-97,97h0s16,0,16,0h0c0-44.66,36.34-81,81-81s81,36.34,81,81c0,33.25-19.93,62.76-50.77,75.17-4.03,1.62-8.16,2.89-12.37,3.84l-17.86,17.86v.13c12.51,0,24.7-2.35,36.21-6.99,36.93-14.87,60.79-50.2,60.79-90.01,0-53.49-43.51-97-97-97Z" fill="#fff" stroke-width="0"/>
</svg>